HIERARCHY
ROOT SpineBase
{
  OFFSET 0.000000 0.000000 0.000000
  CHANNELS 6 Xposition Yposition Zposition Zrotation Xrotation Yrotation
  JOINT SpineMid
  {
    OFFSET 0.000000 32.450248 0.000000
    CHANNELS 3 Zrotation Xrotation Yrotation
    JOINT SpineShoulder
    {
      OFFSET -0.072917 24.549930 -0.966908
      CHANNELS 3 Zrotation Xrotation Yrotation
      JOINT Neck
      {
        OFFSET -0.078044 8.072256 -0.612059
        CHANNELS 3 Zrotation Xrotation Yrotation
        JOINT Head
        {
          OFFSET -3.921547 10.409447 4.953177
          CHANNELS 3 Zrotation Xrotation Yrotation
          End Site
          {
            OFFSET 0 0 0
          }
        }
      }
      JOINT ShoulderLeft
      {
        OFFSET -0.249678 -7.717187 -16.288275
        CHANNELS 3 Zrotation Xrotation Yrotation
        JOINT ElbowLeft
        {
          OFFSET -5.424515 -20.525186 -4.463483
          CHANNELS 3 Zrotation Xrotation Yrotation
          JOINT WristLeft
          {
            OFFSET -7.981221 -14.079489 10.008161
            CHANNELS 3 Zrotation Xrotation Yrotation
            JOINT HandLeft
            {
              OFFSET -1.562277 -0.163348 4.454479
              CHANNELS 3 Zrotation Xrotation Yrotation
              JOINT HandTipLeft
              {
                OFFSET -2.247945 -0.797971 2.928031
                CHANNELS 3 Zrotation Xrotation Yrotation
                End Site
                {
                  OFFSET 0 0 0
                }
              }
              JOINT ThumbLeft
              {
                OFFSET 2.949119 -0.180873 -2.923437
                CHANNELS 3 Zrotation Xrotation Yrotation
                End Site
                {
                  OFFSET 0 0 0
                }
              }
            }
          }
        }
      }
      JOINT ShoulderRight
      {
        OFFSET 13.239169 2.051323 0.314154
        CHANNELS 3 Zrotation Xrotation Yrotation
        JOINT ElbowRight
        {
          OFFSET -12.297992 -19.751521 -13.355808
          CHANNELS 3 Zrotation Xrotation Yrotation
          JOINT WristRight
          {
            OFFSET -14.765985 -20.751820 2.414265
            CHANNELS 3 Zrotation Xrotation Yrotation
            JOINT HandRight
            {
              OFFSET -0.150600 -3.750433 2.610243
              CHANNELS 3 Zrotation Xrotation Yrotation
              JOINT HandTipRight
              {
                OFFSET -1.672907 -2.489017 3.469912
                CHANNELS 3 Zrotation Xrotation Yrotation
                End Site
                {
                  OFFSET 0 0 0
                }
              }
              JOINT ThumbRight
              {
                OFFSET -3.016086 1.149694 -0.115079
                CHANNELS 3 Zrotation Xrotation Yrotation
                End Site
                {
                  OFFSET 0 0 0
                }
              }
            }
          }
        }
      }
    }
  }
  JOINT HipLeft
  {
    OFFSET -2.663140 0.296246 1.506756
    CHANNELS 3 Zrotation Xrotation Yrotation
    JOINT KneeLeft
    {
      OFFSET 16.117520 -34.032277 9.557370
      CHANNELS 3 Zrotation Xrotation Yrotation
      JOINT AnkleLeft
      {
        OFFSET -8.143503 -32.642819 -18.128279
        CHANNELS 3 Zrotation Xrotation Yrotation
        JOINT FootLeft
        {
          OFFSET 6.688172 -2.020374 5.178972
          CHANNELS 3 Zrotation Xrotation Yrotation
          End Site
          {
            OFFSET 0 0 0
          }
        }
      }
    }
  }
  JOINT HipRight
  {
    OFFSET 2.647195 1.872504 -9.632920
    CHANNELS 3 Zrotation Xrotation Yrotation
    JOINT KneeRight
    {
      OFFSET -3.128595 -34.556816 3.552748
      CHANNELS 3 Zrotation Xrotation Yrotation
      JOINT AnkleRight
      {
        OFFSET 14.863430 -28.477858 18.292993
        CHANNELS 3 Zrotation Xrotation Yrotation
        JOINT FootRight
        {
          OFFSET -6.002705 -5.393336 -11.135993
          CHANNELS 3 Zrotation Xrotation Yrotation
          End Site
          {
            OFFSET 0 0 0
          }
        }
      }
    }
  }
}
MOTION
Frames: 6
Frame Time: 0.033333
-10.147792 66.709707 351.184860 5.145364 -0.191903 9.912442 -0.245660 0.287371 -9.722123 -0.726245 -0.265291 0.128840 5.453022 25.782090 2.407196 0.000000 0.000000 0.000000 2.621595 -18.153783 4.403317 -9.919631 19.032855 -4.225454 6.001697 18.332479 29.374397 95.655080 -16.520816 -94.403871 0.000000 0.000000 0.000000 0.000000 0.000000 0.000000 57.035014 -36.197784 -2.059238 -57.819879 -2.658423 45.464149 -2.536171 14.435458 -16.674066 22.277616 11.103099 23.477694 0.000000 0.000000 0.000000 0.000000 0.000000 0.000000 -44.117337 11.299010 -16.962057 54.027278 -17.489084 12.497800 -68.546165 13.531441 135.565636 0.000000 0.000000 0.000000 11.443152 -5.588152 -7.035695 -40.322818 37.069815 13.451429 27.040547 -35.226125 -9.669675 0.000000 0.000000 0.000000
-11.459345 66.780802 352.397829 4.991633 -0.067433 12.273705 -0.054426 0.510014 -12.100051 -0.512038 -0.197208 0.143701 7.116256 28.193822 1.993226 0.000000 0.000000 0.000000 2.581113 -18.865938 4.512905 -10.154235 19.047660 -4.104660 6.126520 18.602206 29.263072 96.677365 -16.394029 -94.018243 0.000000 0.000000 0.000000 0.000000 0.000000 0.000000 55.780957 -34.648067 -5.569377 -57.081065 -6.680625 45.738352 -1.899488 14.383526 -16.721541 22.302127 11.129322 23.502831 0.000000 0.000000 0.000000 0.000000 0.000000 0.000000 -45.684482 11.637993 -20.708357 54.139600 -18.163317 15.090704 -66.115621 17.509723 139.131733 0.000000 0.000000 0.000000 14.816057 -5.518727 -9.064127 -43.426053 36.855774 13.316592 28.983237 -36.719331 -11.777250 0.000000 0.000000 0.000000
-13.085889 66.637494 353.838606 4.866378 -0.087004 14.027844 0.086731 0.695219 -13.863891 -0.285944 -0.109430 0.158445 12.511191 29.187661 -1.214493 0.000000 0.000000 0.000000 1.782672 -18.768242 4.410027 -9.470083 18.738208 -4.302785 6.060645 18.510127 29.277416 95.998429 -16.507890 -94.305202 0.000000 0.000000 0.000000 0.000000 0.000000 0.000000 54.558894 -33.469992 -7.682943 -56.250143 -9.039554 45.651560 -1.501111 14.353800 -16.752558 22.336869 11.149472 23.547493 0.000000 0.000000 0.000000 0.000000 0.000000 0.000000 -46.164451 12.064334 -23.077973 54.407525 -21.003496 17.730975 -66.231381 21.294383 142.145350 0.000000 0.000000 0.000000 18.515450 -5.432211 -10.459165 -48.801314 37.653124 13.568013 30.889644 -40.873673 -6.448007 0.000000 0.000000 0.000000
-14.893715 66.376309 355.444873 5.685205 0.306872 15.766713 -0.021860 0.686387 -15.596085 -0.249515 -0.144096 0.190385 15.514073 30.875411 -3.149712 0.000000 0.000000 0.000000 -0.607880 -19.817275 4.670059 -7.344988 19.687498 -5.145908 5.837741 18.265625 29.263261 95.176545 -16.505280 -94.500393 0.000000 0.000000 0.000000 0.000000 0.000000 0.000000 53.306512 -32.741522 -9.186045 -55.105346 -10.325360 45.774811 -2.071104 14.409044 -16.714317 22.374428 11.162370 23.600535 0.000000 0.000000 0.000000 0.000000 0.000000 0.000000 -47.282583 12.551789 -25.244163 54.162360 -21.846900 19.065661 -70.196260 19.429188 142.769147 0.000000 0.000000 0.000000 21.406399 -5.825800 -11.669170 -53.061076 37.848492 13.255050 31.048892 -39.020003 -8.382797 0.000000 0.000000 0.000000
-16.929715 65.990564 357.085844 5.841799 -0.027067 16.705040 0.247827 0.748275 -16.512045 -0.189878 -0.226021 0.212293 20.747134 33.393281 -6.481077 0.000000 0.000000 0.000000 -1.083128 -17.976656 4.104427 -7.250821 18.325273 -4.858219 5.579852 17.995105 29.234325 93.783268 -16.634511 -94.993405 0.000000 0.000000 0.000000 0.000000 0.000000 0.000000 51.537842 -32.351785 -8.759315 -55.815128 -11.311400 45.166570 0.601344 14.761696 -17.273896 22.415636 11.173037 23.660610 0.000000 0.000000 0.000000 0.000000 0.000000 0.000000 -46.756376 12.948706 -25.893604 53.452951 -23.101354 19.898417 -74.473559 16.843887 143.007983 0.000000 0.000000 0.000000 23.171836 -4.896220 -12.800273 -53.130485 37.385489 13.244244 29.253986 -41.191177 -8.878108 0.000000 0.000000 0.000000
-18.963675 65.774189 358.641122 7.121772 0.161432 16.979447 0.175513 0.658523 -16.750504 -0.061028 -0.338334 0.276985 18.048639 39.193661 -4.798476 0.000000 0.000000 0.000000 -1.017224 -15.683344 3.140449 -8.394436 16.663771 -3.971108 5.476093 20.941950 27.466215 94.869619 -14.340497 -90.983551 0.000000 0.000000 0.000000 0.000000 0.000000 0.000000 49.868379 -31.641651 -10.525965 -53.406601 -10.390555 45.162557 -2.797217 14.337809 -16.581167 22.466157 11.189340 23.732646 0.000000 0.000000 0.000000 0.000000 0.000000 0.000000 -47.048728 12.925258 -25.845821 52.660635 -23.571143 19.758617 -78.687944 13.235709 142.184964 0.000000 0.000000 0.000000 21.909566 -3.516749 -13.624255 -49.859673 36.496191 13.788504 24.909091 -45.297014 -9.151428 0.000000 0.000000 0.000000
